<!DOCTYPE svg PUBLIC "-//W3C//DTD SVG 1.1//EN" "http://www.w3.org/Graphics/SVG/1.1/DTD/svg11.dtd">
<!-- Uploaded to: SVG Repo, www.svgrepo.com, Transformed by: SVG Repo Mixer Tools -->
<svg width="64px" height="64px" viewBox="0 0 24.00 24.00" id="_003_ECOMMERCE_03" data-name="003_ECOMMERCE_03" xmlns="http://www.w3.org/2000/svg" fill="#525252" stroke="#525252" stroke-width="0.12000000000000002">
<g id="SVGRepo_bgCarrier" stroke-width="0"/>
<g id="SVGRepo_tracerCarrier" stroke-linecap="round" stroke-linejoin="round"/>
<g id="SVGRepo_iconCarrier">
<title>003_084</title>
<path d="M20,21H4a.99974.99974,0,0,1-1-1V4A.99974.99974,0,0,1,4,3h9a1,1,0,0,1,0,2H5V19H19V5H17a1,1,0,0,1,0-2h3a.99974.99974,0,0,1,1,1V20A.99974.99974,0,0,1,20,21Z" style="fill:#525252"/>
<polygon points="10 4 10 11 12 9 14 11 14 4 10 4" style="fill:#525252"/>
</g>
</svg>