<!DOCTYPE svg PUBLIC "-//W3C//DTD SVG 1.1//EN" "http://www.w3.org/Graphics/SVG/1.1/DTD/svg11.dtd">
<!-- Uploaded to: SVG Repo, www.svgrepo.com, Transformed by: SVG Repo Mixer Tools -->
<svg fill="#525252" version="1.1" id="Layer_1" xmlns="http://www.w3.org/2000/svg" xmlns:xlink="http://www.w3.org/1999/xlink" viewBox="0 0 24.00 24.00" xml:space="preserve" width="64px" height="64px" stroke="#525252" stroke-width="0.00024000000000000003">
<g id="SVGRepo_bgCarrier" stroke-width="0"/>
<g id="SVGRepo_tracerCarrier" stroke-linecap="round" stroke-linejoin="round"/>
<g id="SVGRepo_iconCarrier"> <style type="text/css"> .st0{fill:none;} </style> <path d="M4,2C2.9,2,2,2.9,2,4v13c0,1.1,0.9,2,2,2h6v1H6v2h12v-2h-4v-1h6c1.1,0,2-0.9,2-2V4c0-1.1-0.9-2-2-2H4z M4,4h16v13H4V4z M12,5c-1.1,0-2,0.9-2,2s0.9,2,2,2s2-0.9,2-2S13.1,5,12,5z M10,10c-1.1,0-2,0.9-2,2v1h8v-1c0-1.1-0.9-2-2-2H10z M5,14v2h4v-2H5z M10,14v2h4v-2H10z M15,14v2h4v-2H15z"/> <rect class="st0" width="24" height="24"/> </g>
</svg>