<svg width="64px" height="64px" viewBox="0 0 24 24" xmlns="http://www.w3.org/2000/svg" fill="#16A34A" stroke="#16A34A" stroke-width="0.00024000000000000003"><g id="SVGRepo_bgCarrier" stroke-width="0"></g><g id="SVGRepo_tracerCarrier" stroke-linecap="round" stroke-linejoin="round"></g><g id="SVGRepo_iconCarrier"><path d="M10 15h12v1H10zm-4-3h2v-2H6zm4-1h12v-1H10zm-4 6h2v-2H6zm4 4h12v-1H10zm-4 1h2v-2H6zM23 3v3a1.001 1.001 0 0 1-1 1H2a1.001 1.001 0 0 1-1-1V3a1.001 1.001 0 0 1 1-1h20a1.001 1.001 0 0 1 1 1zm-.999 3H22V3H2v3h20.001z"></path><path fill="none" d="M0 0h24v24H0z"></path></g></svg>