<svg fill="#16A34A" version="1.1" id="Layer_1" xmlns="http://www.w3.org/2000/svg" xmlns:xlink="http://www.w3.org/1999/xlink" viewBox="0 0 512 512" xml:space="preserve" width="64px" height="64px"><g id="SVGRepo_bgCarrier" stroke-width="0"></g><g id="SVGRepo_tracerCarrier" stroke-linecap="round" stroke-linejoin="round"></g><g id="SVGRepo_iconCarrier"> <g> <g> <path d="M0,31.67v448.66h512V31.67H0z M496.165,464.495H15.835V121.402h480.33V464.495z M496.165,105.567H15.835V47.505h480.33 V105.567z"></path> </g> </g> <g> <g> <rect x="39.588" y="68.619" width="21.113" height="15.835"></rect> </g> </g> <g> <g> <rect x="71.258" y="68.619" width="21.113" height="15.835"></rect> </g> </g> <g> <g> <rect x="451.299" y="68.619" width="21.113" height="15.835"></rect> </g> </g> <g> <g> <path d="M36.948,142.515v300.866h438.103V142.515H36.948z M459.216,427.546H52.784V385.32h406.433V427.546z M459.216,369.485 H211.134v-68.619h131.959V184.742H195.299v184.742H52.784V158.351h406.433V369.485z M211.134,285.031v-84.454h116.124v84.454 H211.134z"></path> </g> </g> <g> <g> <rect x="266.557" y="221.691" width="36.948" height="15.835"></rect> </g> </g> <g> <g> <rect x="234.887" y="248.082" width="68.619" height="15.835"></rect> </g> </g> <g> <g> <rect x="71.258" y="179.464" width="21.113" height="15.835"></rect> </g> </g> <g> <g> <rect x="71.258" y="211.134" width="21.113" height="15.835"></rect> </g> </g> <g> <g> <rect x="102.928" y="179.464" width="21.113" height="15.835"></rect> </g> </g> <g> <g> <rect x="419.629" y="332.536" width="21.113" height="15.835"></rect> </g> </g> <g> <g> <rect x="419.629" y="300.866" width="21.113" height="15.835"></rect> </g> </g> <g> <g> <rect x="387.959" y="332.536" width="21.113" height="15.835"></rect> </g> </g> </g></svg>