<svg fill="#16A34A" version="1.1" id="Capa_1" xmlns="http://www.w3.org/2000/svg" xmlns:xlink="http://www.w3.org/1999/xlink" width="64px" height="64px" viewBox="0 0 459.896 459.896" xml:space="preserve"><g id="SVGRepo_bgCarrier" stroke-width="0"></g><g id="SVGRepo_tracerCarrier" stroke-linecap="round" stroke-linejoin="round"></g><g id="SVGRepo_iconCarrier"> <g> <g> <path d="M121.713,224.36h216.471c1.085,0,2.085-0.586,2.615-1.531c0.531-0.946,0.511-2.104-0.054-3.031l-38.771-63.57 c-0.544-0.893-1.516-1.438-2.562-1.438H160.484c-1.046,0-2.017,0.545-2.561,1.438l-38.771,63.57 c-0.565,0.927-0.586,2.085-0.055,3.031C119.628,223.774,120.628,224.36,121.713,224.36z"></path> <path d="M63.553,319.718h332.789c1.085,0,2.085-0.586,2.616-1.531c0.53-0.945,0.51-2.104-0.055-3.031l-38.773-63.572 c-0.544-0.893-1.515-1.438-2.561-1.438H102.326c-1.046,0-2.017,0.545-2.561,1.438l-38.772,63.572 c-0.565,0.928-0.586,2.086-0.055,3.031C61.469,319.132,62.469,319.718,63.553,319.718z"></path> <path d="M179.87,129.004h100.156c1.084,0,2.085-0.586,2.616-1.531c0.53-0.946,0.51-2.104-0.056-3.031l-50.078-82.108 c-0.544-0.893-1.515-1.438-2.561-1.438s-2.017,0.545-2.561,1.438l-50.078,82.108c-0.565,0.927-0.586,2.085-0.055,3.031 C177.785,128.417,178.785,129.004,179.87,129.004z"></path> <path d="M459.457,414.44l-41.168-67.5c-0.544-0.894-1.515-1.438-2.561-1.438H44.168c-1.046,0-2.017,0.545-2.561,1.438 l-41.168,67.5c-0.565,0.926-0.586,2.084-0.055,3.031c0.531,0.943,1.531,1.529,2.616,1.529h453.896 c1.084,0,2.085-0.586,2.616-1.529C460.043,416.524,460.022,415.366,459.457,414.44z"></path> </g> </g> </g></svg>